<svg id="2397884e-7263-4994-871a-c9093fc92ed1" data-name="Layer 1" xmlns="http://www.w3.org/2000/svg" width="410.954" height="391.029" viewBox="0 0 410.9543 391.0292"><defs><radialGradient id="73081440-b4c6-433e-b090-7848b2b7dd47" cx="397.074" cy="287.029" r="190.243" gradientUnits="userSpaceOnUse"><stop offset="0" stop-color="#3cbeff"/><stop offset="1" stop-color="#6933e1"/></radialGradient><linearGradient id="1278d792-9890-4c06-9c52-8c6bf979e728" x1="313.679" y1="61.8" x2="252.684" y2="193.215" gradientUnits="userSpaceOnUse"><stop offset="0" stop-color="#9dcf31"/><stop offset="1" stop-color="#269f25"/></linearGradient><linearGradient id="436576a4-ec98-464f-a77a-84d7a8c0ac12" x1="259.307" y1="179.878" x2="122.902" y2="162.135" gradientUnits="userSpaceOnUse"><stop offset="0" stop-color="#ff0b61"/><stop offset="1" stop-color="#9010d3"/></linearGradient><linearGradient id="6003e3c9-08f0-41e1-bab4-ba9c62de65ee" x1="126.91" y1="58.024" x2="126.91" y2="343.178" gradientUnits="userSpaceOnUse"><stop offset="0" stop-color="#ffc900"/><stop offset="1" stop-color="#fb521f"/></linearGradient></defs><title>motional-logo</title><path d="M303.365 135.93c-3.756 7.686-34.01 72.746-36.597 78.48v81.315a44.914 44.914 0 1 0 89.828 0v-159.24c0-49.073-29.388-49.35-53.231-.555z" fill="url(#73081440-b4c6-433e-b090-7848b2b7dd47)"/><path d="M309.606 133.973c8.273 0 15.276 5.796 15.276 15.396 0 9.661-7.003 15.457-15.276 15.457-8.332 0-15.336-5.796-15.336-15.457 0-9.599 7.004-15.396 15.336-15.396zm0 22.883c4.53 0 8.453-2.716 8.453-7.487s-3.924-7.427-8.453-7.427c-4.589 0-8.513 2.658-8.513 7.427s3.924 7.487 8.513 7.487zm-11.713 29.705a3.116 3.116 0 0 1-3.02-2.294 12.031 12.031 0 0 1-.603-3.985c0-5.373 2.777-8.271 7.97-8.271h15.216v-1.872a3.351 3.351 0 1 1 6.702 0v1.872h4.528a3.864 3.864 0 1 1 0 7.728h-4.528v3.019a3.351 3.351 0 0 1-6.702 0v-3.019h-13.163c-1.811 0-3.2.905-3.2 2.596 0 .544.12.906.12 1.268a3.125 3.125 0 0 1-3.32 2.958zm.543 4.347h22.28a3.834 3.834 0 1 1 0 7.668h-22.28a3.891 3.891 0 0 1-3.864-3.864 3.84 3.84 0 0 1 3.864-3.804zm35.08-.785a4.589 4.589 0 1 1-4.589 4.589 4.626 4.626 0 0 1 4.59-4.589zm-23.91 14.19c8.273 0 15.276 5.795 15.276 15.396 0 9.66-7.003 15.457-15.276 15.457-8.332 0-15.336-5.797-15.336-15.457 0-9.6 7.004-15.397 15.336-15.397zm0 22.882c4.53 0 8.453-2.716 8.453-7.486s-3.924-7.427-8.453-7.427c-4.589 0-8.513 2.656-8.513 7.427s3.924 7.486 8.513 7.486zm5.978 40.996h-17.148a3.834 3.834 0 1 1 0-7.668h14.19c4.045 0 5.434-2.113 5.434-5.374a8.307 8.307 0 0 0-3.442-6.641h-16.182a3.834 3.834 0 1 1 0-7.668h22.28a3.854 3.854 0 0 1 3.925 3.803 3.917 3.917 0 0 1-3.925 3.925h-.242a13.58 13.58 0 0 1 4.408 10.144c0 6.4-3.623 9.48-9.298 9.48zm-1.751 32.785h-15.276a3.877 3.877 0 0 1-.544-7.728c-2.294-1.933-3.743-5.374-3.743-9.178 0-4.65 3.14-10.144 9.661-10.144 6.823 0 9.298 5.495 9.298 10.144 0 3.864-1.207 7.306-3.562 9.238h4.046c2.958 0 4.89-2.536 4.89-6.4a11.68 11.68 0 0 0-1.932-6.46 3.14 3.14 0 0 1-.423-1.51 2.953 2.953 0 0 1 2.959-2.9 3.028 3.028 0 0 1 2.536 1.39 19.413 19.413 0 0 1 3.14 10.808c0 6.642-2.658 12.74-11.05 12.74zm-11.834-7.668h3.623c1.69-1.268 2.536-3.683 2.536-6.159 0-3.02-1.631-5.495-4.408-5.495-2.717 0-4.288 2.476-4.288 5.495 0 2.476.846 4.891 2.537 6.159zm-3.563 15.275h33.39a3.834 3.834 0 1 1 0 7.668h-33.39a3.834 3.834 0 1 1 0-7.668z" fill="#f2f2f2"/><path d="M300.548 51.88c-32.26-6.79-65.741 11.137-79.615 42.626l-.14.325-15.448 35.83 20.304 47.557c16.296 35.741 30.98 54.266 39.983 38.411.387-.75.784-1.508 1.136-2.22 2.587-5.734 32.841-70.793 36.597-78.48 23.843-48.795 53.231-48.517 53.231.555v-7.237c0-30.248-14.679-68.659-56.048-77.366zm-72.733 128.102l.001.001z" fill="url(#1278d792-9890-4c06-9c52-8c6bf979e728)"/><path d="M225.649 178.218l-20.304-47.557a3060.67 3060.67 0 0 1-5.884-13.734c-27.077-65.504-55.275-36.996-55.275 27.408v69.873c15.24 30.917 35.778 46.582 61.104 46.582h.138c33.013-.073 51.26-26.852 60.205-44.161-9.004 15.855-23.688-2.67-39.984-38.411z" fill="url(#436576a4-ec98-464f-a77a-84d7a8c0ac12)"/><path d="M199.461 116.927a2554.458 2554.458 0 0 1-9.034-21.466q-.21-.512-.433-1.017c-14.145-31.976-46.903-49.478-79.652-42.553-41.323 8.731-55.984 47.128-55.984 77.356v166.478a44.914 44.914 0 1 0 89.828 0v-151.39c0-64.404 28.198-92.912 55.275-27.408z" fill="url(#6003e3c9-08f0-41e1-bab4-ba9c62de65ee)"/></svg>